<svg width="45" height="45" viewBox="0 0 45 45" fill="none" xmlns="http://www.w3.org/2000/svg">
<path d="M36.5348 26.3441C34.4529 26.3441 32.5376 27.1013 31.1219 28.6156C28.8735 27.4378 26.3752 26.5124 23.7104 25.8393C24.0435 24.9139 24.9596 22.0535 25.3759 20.7915C26.7084 21.0439 28.124 21.2122 29.5397 21.2963C34.786 21.7169 38.7832 20.7074 41.3648 18.3517C43.863 15.9961 44.4459 12.7991 44.4459 10.6117C44.4459 5.31151 40.1989 0.93673 34.8693 0.93673C34.5362 0.93673 31.5383 0.684339 28.7902 2.87173C27.0414 4.30195 24.793 10.1911 23.1275 15.0706C20.6293 14.3976 18.3808 13.388 16.4655 12.2102C16.4655 12.0419 16.4655 11.8737 16.4655 11.7054C16.4655 7.41477 12.968 3.88129 8.72094 3.88129C4.47392 3.88129 0.976364 7.41477 0.976364 11.7054C0.976364 15.9961 4.47392 19.5295 8.72094 19.5295C10.8028 19.5295 12.7181 18.7724 14.1338 17.258C16.3822 18.4359 18.8805 19.3613 21.5453 20.0343C21.2122 20.9598 20.2962 23.8202 19.8798 25.0822C18.5474 24.8298 17.1317 24.6615 15.716 24.5774C10.4697 24.1567 6.47252 25.1663 3.89099 27.5219C1.39274 29.8776 0.809814 33.0745 0.809814 35.2619C0.809814 40.5621 5.05684 44.9369 10.3864 44.9369C10.4697 44.9369 10.6363 44.9369 10.8861 44.9369C11.9687 44.9369 14.3004 44.6845 16.4655 43.0019C18.2143 41.5717 20.4627 35.6826 22.1282 30.803C24.6265 31.4761 26.8749 32.4856 28.7902 33.6635C28.7902 33.8317 28.7902 34 28.7902 34.1682C28.7902 38.4589 32.2878 41.9924 36.5348 41.9924C40.7818 41.9924 44.2794 38.4589 44.2794 34.1682C44.2794 29.8776 40.8651 26.3441 36.5348 26.3441ZM39.7825 13.9769C38.117 15.7437 34.6195 16.4167 29.2899 16.0802C28.5404 15.9961 27.7909 15.9961 27.0414 15.8278C28.6237 11.3689 30.0393 7.91955 31.2885 5.47977C32.7041 3.03999 34.2864 1.94629 35.7853 2.19869C38.6167 2.7876 40.6153 7.91955 40.8651 9.85455C41.0317 11.6213 40.6986 12.9674 39.7825 13.9769ZM5.30667 31.8126C6.63907 30.3824 9.30387 29.6252 13.2178 29.6252C14.0505 29.6252 14.8833 29.6252 15.7993 29.7093C16.5488 29.7935 17.2983 29.7935 18.0477 29.9617C16.4655 34.4206 15.0498 37.87 13.8007 40.3098C12.3018 42.7495 10.8028 43.8432 9.30387 43.5908C6.47252 43.0019 4.47392 37.87 4.22409 35.935C4.05754 34.1682 4.39064 32.8221 5.30667 31.8126Z" fill="url(#paint0_linear_417_86)"/>
<defs>
<linearGradient id="paint0_linear_417_86" x1="0.809814" y1="0.927856" x2="45.2195" y2="44.142" gradientUnits="userSpaceOnUse">
<stop stop-color="#FF5274"/>
<stop offset="1" stop-color="#6446FA"/>
</linearGradient>
</defs>
</svg>
